Coordinates
version=1
nRows=32
nColumns=22
inDegrees=yes

Units are S.I. units (second, meters, Newtons, ...)
If the header above contains a line with 'inDegrees', this indicates whether rotational values are in degrees (yes) or radians (no).

endheader
time	pelvis_tilt	pelvis_list	pelvis_rotation	pelvis_tx	pelvis_ty	pelvis_tz	hip_flexion_r	hip_adduction_r	hip_rotation_r	knee_angle_r	ankle_angle_r	subtalar_angle_r	hip_flexion_l	hip_adduction_l	hip_rotation_l	knee_angle_l	ankle_angle_l	subtalar_angle_l	lumbar_extension	lumbar_bending	lumbar_rotation
      1.40000000	      5.10463271	     -3.40796653	      4.34500100	     -1.46117159	      0.95513543	      0.09299967	     -5.63058651	      4.54947997	     -7.30800106	     -7.25095053	      7.92993257	      0.31523613	     -1.61234259	     -3.98762274	    -11.10585830	    -16.04072228	     20.36620578	     -8.28620495	    -11.55092191	      4.44452181	     -9.44918085
      1.41000000	      5.10744273	     -3.40891265	      4.34681317	     -1.46113400	      0.95513368	      0.09295468	     -5.63317025	      4.54892097	     -7.30575115	     -7.25668918	      7.93065268	      0.31456786	     -1.61456230	     -3.98654307	    -11.10436969	    -16.04688699	     20.36760395	     -8.28664432	    -11.54908561	      4.44538850	     -9.44918787
      1.42000000	      5.11758444	     -3.41031438	      4.35152382	     -1.46113283	      0.95513736	      0.09291116	     -5.63508618	      4.54927194	     -7.29981289	     -7.27591243	      7.93981637	      0.31066297	     -1.61373181	     -3.98825405	    -11.09579057	    -16.06975576	     20.37791245	     -8.28959915	    -11.56628642	      4.44700897	     -9.45188735
      1.43000000	      5.11888337	     -3.41127756	      4.35468822	     -1.46108750	      0.95513326	      0.09286305	     -5.63790065	      4.54928096	     -7.29948834	     -7.27946476	      7.94117884	      0.31012252	     -1.61594856	     -3.98686095	    -11.09534737	    -16.07307991	     20.37903833	     -8.29003880	    -11.56301893	      4.44848782	     -9.45111309
      1.44000000	      5.12107217	     -3.41212961	      4.36011382	     -1.46104063	      0.95512882	      0.09281100	     -5.64155740	      4.54863051	     -7.29875750	     -7.28533577	      7.94362513	      0.30935254	     -1.61784748	     -3.98643106	    -11.09290723	    -16.07863779	     20.38091314	     -8.29050013	    -11.56135646	      4.45045719	     -9.44955703
      1.45000000	      5.13275811	     -3.41648749	      4.37242250	     -1.46104053	      0.95513210	      0.09276257	     -5.64779743	      4.55371327	     -7.30585797	     -7.30049167	      7.96317237	      0.30438078	     -1.61496265	     -3.99220568	    -11.06938887	    -16.10619896	     20.39502598	     -8.29262669	    -11.58327576	      4.45599913	     -9.44550888
      1.46000000	      5.13312974	     -3.41717458	      4.37848956	     -1.46098877	      0.95512679	      0.09271315	     -5.65183830	      4.55343604	     -7.30671042	     -7.30308564	      7.96476969	      0.30373063	     -1.61662322	     -3.99148769	    -11.06870070	    -16.10842717	     20.39644385	     -8.29295814	    -11.57984566	      4.45854029	     -9.44419857
      1.47000000	      5.13458667	     -3.41825363	      4.38911042	     -1.46094231	      0.95512112	      0.09266034	     -5.65768377	      4.55400889	     -7.30947608	     -7.30371821	      7.96798038	      0.30260466	     -1.61691348	     -3.99238257	    -11.06438558	    -16.11373231	     20.39932031	     -8.29329582	    -11.57851305	      4.46176396	     -9.43937009
      1.48000000	      5.14911204	     -3.43507115	      4.42195464	     -1.46090761	      0.95512176	      0.09258789	     -5.68849862	      4.57675728	     -7.34571864	     -7.27860649	      7.98657024	      0.28779927	     -1.61365975	     -4.01386608	    -11.02175353	    -16.14535236	     20.43334994	     -8.29779024	    -11.59547217	      4.48675040	     -9.45165973
      1.49000000	      5.14872516	     -3.43513407	      4.43256878	     -1.46086188	      0.95511509	      0.09253918	     -5.69309958	      4.57615239	     -7.34635848	     -7.27672730	      7.98590263	      0.28670264	     -1.61318216	     -4.01346545	    -11.02020405	    -16.14795133	     20.43429482	     -8.29829052	    -11.59328426	      4.48750206	     -9.44472842
      1.50000000	      5.14976133	     -3.44017895	      4.44794613	     -1.46081238	      0.95510495	      0.09249681	     -5.71396011	      4.58445657	     -7.35760583	     -7.24298128	      7.98439067	      0.28022742	     -1.60463611	     -4.01966886	    -10.99731599	    -16.16927675	     20.44174853	     -8.30081400	    -11.59369121	      4.49086467	     -9.41726246
      1.51000000	      5.15992366	     -3.45749939	      4.47452797	     -1.46075192	      0.95510315	      0.09242453	     -5.74730066	      4.60736234	     -7.35415398	     -7.20585292	      7.96978368	      0.25801435	     -1.60304904	     -4.04036631	    -10.96601538	    -16.19351364	     20.46947706	     -8.31115617	    -11.59829097	      4.51793734	     -9.42588680
      1.52000000	      5.16000199	     -3.45749761	      4.48706610	     -1.46068898	      0.95509258	      0.09237643	     -5.75157529	      4.60721960	     -7.35196644	     -7.20777541	      7.96956546	      0.25669249	     -1.60423315	     -4.04102794	    -10.96514568	    -16.19616262	     20.47074879	     -8.31188075	    -11.59533983	      4.51807517	     -9.41927126
      1.53000000	      5.16691401	     -3.46236412	      4.50300076	     -1.46063797	      0.95508587	      0.09233415	     -5.76643269	      4.61554720	     -7.34570544	     -7.19998672	      7.97736482	      0.24577054	     -1.59896293	     -4.04829158	    -10.93651881	    -16.22395057	     20.48459482	     -8.31651305	    -11.60427443	      4.52103214	     -9.38366227
      1.54000000	      5.17839165	     -3.46903880	      4.51648165	     -1.46057630	      0.95508161	      0.09228436	     -5.77069026	      4.62387123	     -7.32684667	     -7.22507913	      7.99483624	      0.22783329	     -1.60422004	     -4.05720016	    -10.91353281	    -16.24317664	     20.50669324	     -8.32423349	    -11.61713357	      4.53208796	     -9.36842529
      1.55000000	      5.19059177	     -3.46973218	      4.52740656	     -1.46050281	      0.95507611	      0.09223435	     -5.76227624	      4.62346031	     -7.31283747	     -7.27700012	      8.02274125	      0.20821359	     -1.61350745	     -4.05972591	    -10.89540340	    -16.25920441	     20.52540070	     -8.33113078	    -11.63112258	      4.53603161	     -9.34840062
      1.56000000	      5.19883824	     -3.46087780	      4.53187054	     -1.46041881	      0.95505765	      0.09219029	     -5.71872027	      4.60766789	     -7.33128245	     -7.39136088	      8.12596079	      0.15384778	     -1.62785672	     -4.05064360	    -10.88722670	    -16.25982264	     20.55451345	     -8.34700418	    -11.64250380	      4.52716379	     -9.30872250
      1.57000000	      5.20753269	     -3.44468974	      4.54441750	     -1.46035509	      0.95503680	      0.09213711	     -5.65259765	      4.58301206	     -7.35113113	     -7.54877375	      8.21861877	      0.10188831	     -1.63410924	     -4.03452820	    -10.85796583	    -16.27251031	     20.56097215	     -8.34991537	    -11.66079759	      4.51178541	     -9.28514511
      1.58000000	      5.21821913	     -3.42393875	      4.56280199	     -1.46029778	      0.95501049	      0.09207615	     -5.56548418	      4.55209434	     -7.38326633	     -7.75012416	      8.32698060	      0.05332611	     -1.64031367	     -4.01482107	    -10.82236778	    -16.28688622	     20.57135981	     -8.33813088	    -11.68615457	      4.49364460	     -9.26766413
      1.59000000	      5.21550134	     -3.38842747	      4.59070774	     -1.46023923	      0.95495401	      0.09200864	     -5.43898850	      4.50300820	     -7.43876981	     -8.00335608	      8.48558530	     -0.02466882	     -1.62629762	     -3.98128286	    -10.78114986	    -16.31109278	     20.57046889	     -8.30903575	    -11.69665787	      4.45885658	     -9.28763160
      1.60000000	      5.23171402	     -3.36142356	      4.61589352	     -1.46020183	      0.95492014	      0.09194724	     -5.31300492	      4.46379960	     -7.50096926	     -8.28820538	      8.60770047	     -0.07687497	     -1.63674619	     -3.95678903	    -10.72540990	    -16.32545100	     20.59322008	     -8.27216990	    -11.74138969	      4.43717149	     -9.25536384
      1.61000000	      5.20730945	     -3.31087844	      4.66619783	     -1.46018987	      0.95481053	      0.09186052	     -5.12350830	      4.39780804	     -7.58534844	     -8.61539812	      8.81281075	     -0.21020858	     -1.57910999	     -3.90901992	    -10.64521759	    -16.37816547	     20.57976265	     -8.19949924	    -11.74186409	      4.38995987	     -9.29890173
      1.62000000	      5.21574594	     -3.25803137	      4.70263699	     -1.46015863	      0.95475013	      0.09179855	     -4.95604398	      4.32978004	     -7.67591477	     -8.97023341	      8.99145954	     -0.28814847	     -1.57744236	     -3.86066490	    -10.59268769	    -16.39936260	     20.60444101	     -8.13755638	    -11.78717826	      4.34328325	     -9.32166353
      1.63000000	      5.21386148	     -3.19980611	      4.74527790	     -1.46013347	      0.95466944	      0.09174806	     -4.76342293	      4.25608930	     -7.77680510	     -9.35317540	      9.18040531	     -0.37892358	     -1.55786998	     -3.80723670	    -10.51586946	    -16.43311833	     20.62401761	     -8.06250812	    -11.82537124	      4.29001623	     -9.35260658
      1.64000000	      5.19643950	     -3.13997746	      4.79380519	     -1.46011948	      0.95456251	      0.09170447	     -4.54461343	      4.18010193	     -7.87958567	     -9.75339499	      9.38124404	     -0.49585385	     -1.50959528	     -3.75292349	    -10.42523767	    -16.48763173	     20.63833167	     -7.96873028	    -11.85344841	      4.23554071	     -9.38928103
      1.65000000	      5.18264551	     -3.07898252	      4.83508386	     -1.46008971	      0.95446158	      0.09170057	     -4.32066478	      4.10394247	     -7.97456413	    -10.17324075	      9.57304072	     -0.60707621	     -1.46731233	     -3.70040088	    -10.34692403	    -16.54361024	     20.66441690	     -7.86891389	    -11.88968333	      4.18025252	     -9.42968460
      1.66000000	      5.15792848	     -3.02173687	      4.87272034	     -1.46003915	      0.95434339	      0.09172508	     -4.08309654	      4.03215785	     -8.05895064	    -10.59772321	      9.75747260	     -0.73328707	     -1.40496396	     -3.65306075	    -10.26251732	    -16.62024663	     20.68612708	     -7.75115159	    -11.91537598	      4.12845812	     -9.46111840
      1.67000000	      5.17966343	     -2.96163330	      4.88492033	     -1.45991377	      0.95429960	      0.09181462	     -3.90096859	      3.96025068	     -8.13324783	    -11.01906348	      9.88654831	     -0.78512640	     -1.41841549	     -3.60757588	    -10.22278953	    -16.66781518	     20.75179850	     -7.67677972	    -11.99493412	      4.07352481	     -9.46574820
      1.68000000	      5.13161410	     -2.89466252	      4.91875435	     -1.45976863	      0.95413728	      0.09190276	     -3.64438721	      3.87951620	     -8.20146060	    -11.44541639	     10.12035558	     -0.91391643	     -1.32650834	     -3.55343557	    -10.15103749	    -16.76720786	     20.74402300	     -7.53661023	    -11.98564446	      4.01008012	     -9.53753262
      1.69000000	      5.15800732	     -2.83814915	      4.91850912	     -1.45952399	      0.95408843	      0.09207490	     -3.48736631	      3.81668211	     -8.26170241	    -11.83932670	     10.23338362	     -0.96227707	     -1.34862086	     -3.51694871	    -10.13432193	    -16.82561603	     20.82024944	     -7.46615305	    -12.06191835	      3.95862547	     -9.53072846
      1.70000000	      5.13060580	     -2.77264532	      4.93183180	     -1.45922270	      0.95394369	      0.09226754	     -3.27974449	      3.74458081	     -8.31285290	    -12.23000633	     10.46318204	     -1.06695045	     -1.30393561	     -3.47027792	    -10.10813116	    -16.90110602	     20.83451305	     -7.34679282	    -12.06227761	      3.89516715	     -9.59528565
      1.71000000	      5.14969736	     -2.72188858	      4.92976912	     -1.45885678	      0.95386168	      0.09253821	     -3.14479671	      3.69680019	     -8.36316013	    -12.57866137	     10.57937996	     -1.12957514	     -1.31703260	     -3.44641464	    -10.09245153	    -16.97639909	     20.91160919	     -7.27022045	    -12.11855566	      3.84259322	     -9.57327381
